#!OML:ASF E:/inclinewalkrobotboard/Project1/Captureday1/Session1/subject1.ASF
:FULLY-SPECIFIED
:DEGREES
276
root 0 0 0 -1.420299114227403 -1.3592592384783737 -4.008622922690236
lowerback 19.745952901848632 3.0153889863442096 0.09104112488662508
upperback 2.18419343968019 4.071834975245191 -0.506032918510972
thorax -8.695861544530311 1.9630495718180745 -1.2545570856603092
lowerneck -8.56113498931274 -5.990366334032554 -1.4776418447298083
upperneck -0.8482131150382237 -8.656239749898493 5.8524385865427835
head 1.4128061750461036 -3.9617516361489944 1.5367602569982761
rclavicle -9.083546998667503E-16 4.1812927500641865E-16
rhumerus 36.420966869888595 -4.5403834937247565 -28.875291446909912
rradius 149.7428899150973
rwrist -24.99861903635793
rhand -19.102218969309376 -31.35235519224627
rfingers 7.125019999999953
rthumb 7.225929598922355 -61.148022467885525
lclavicle -2.039833193412999E-15 7.542424498027603E-16
lhumerus -47.18743772975894 -6.412077994800925 80.13470230399776
lradius 62.105340178792076
lwrist 10.799778770913651
lhand -14.445284182465736 -20.104504685455964
lfingers 7.125019999999871
lthumb 11.63366109147069 9.581416499827183
rfemur -4.363988634617984 8.858869927566872 35.4504334750613
rtibia 27.787071664287723
rfoot -20.492525081631072 -8.001786035276822
rtoes 7.345574733866199
lfemur -23.259338913493433 3.2752419806917374 -13.922192559068012
ltibia 61.80625280520232
lfoot -2.1657995371088106 -6.842982056469908
ltoes -4.086661147922683
277
root 0 0 0 -1.4489076218372052 -1.4290261727960227 -4.006485112061327
lowerback 19.69862040957154 3.0322922539953923 0.13520710484348353
upperback 2.2165010147015702 4.095929847546707 -0.5210002298779624
thorax -8.637307428029908 1.9737855136109301 -1.2967692027633546
lowerneck -8.59922711488863 -5.97748165020638 -1.5041252315285576
upperneck -0.9137889403546602 -8.637076551001453 5.879169761907287
head 1.3885888389313985 -3.953168308494835 1.551056077057979
rclavicle -9.460401255657271E-16 5.116354657905568E-16
rhumerus 36.58721917497978 -4.024519779491259 -28.919000398661474
rradius 150.32045546181251
rwrist -24.975243722038467
rhand -19.1743388496535 -31.202052828542165
rfingers 7.125019999999952
rthumb 7.156640996353095 -61.00372807640982
lclavicle -1.880192146493431E-15 7.769663399900268E-16
lhumerus -47.30381685892245 -6.295838196159152 79.97180487663334
lradius 62.05998950046992
lwrist 10.800951766060473
lhand -14.487404537339026 -20.016353483906112
lfingers 7.12501999999987
lthumb 11.594722838344142 9.686787720867832
rfemur -1.6080480683209495 8.986451765810411 35.70633151519827
rtibia 26.671532785300244
rfoot -21.367610504676332 -7.928679402830347
rtoes 6.535981209820812
lfemur -24.34820298014049 2.968433223443775 -14.29547512562253
ltibia 58.80554687649296
lfoot -2.5496926965538336 -6.122526939698548
ltoes -1.7736541582281973
278
root 0 0 0 -1.4662625018881978 -1.483240351425286 -4.001505423440991
lowerback 19.72757753491955 3.0360041064923426 0.15128117630932625
upperback 2.2392419618251758 4.101432096763457 -0.5273533759609745
thorax -8.631502386252814 1.9756013075661358 -1.3134136029167154
lowerneck -8.612215784530239 -5.964651673741367 -1.4997330196464635
upperneck -1.015048952755972 -8.61410313640414 5.863581209748819
head 1.3564353822590869 -3.9445374904887514 1.5475688856759748
rclavicle -9.185362289513765E-16 6.730580082658962E-16
rhumerus 36.62621093576078 -3.8875991898288382 -28.98736315984638
rradius 150.5846797316279
rwrist -24.873791012372493
rhand -19.267498885718616 -31.131948299578156
rfingers 7.125019999999953
rthumb 7.067490502307202 -60.93979888074993
lclavicle -1.7546199836625535E-15 8.801866268543233E-16
lhumerus -47.361288818243096 -6.225979017330361 79.87298405596351
lradius 62.028431806584415
lwrist 10.80262906622518
lhand -14.51768090247171 -19.95998087027174
lfingers 7.125019999999869
lthumb 11.566495915975153 9.754788297566723
rfemur -0.4006740127394308 8.983872591369275 35.75913133420501
rtibia 26.466745625904103
rfoot -21.666506786738644 -7.892217450836038
rtoes 5.988020709414844
lfemur -25.46701299754126 2.554755257537861 -14.939422635262476
ltibia 54.92856374405065
lfoot -2.9004454006926164 -5.370308129440194
ltoes 1.4001245777414155
279
root 0 0 0 -1.4767107359104756 -1.5246857946486214 -3.993816355008722
lowerback 19.80403777712519 3.031638023381879 0.1505813354602039
upperback 2.2587300505576913 4.095392034143271 -0.5290198148426206
thorax -8.655448357381761 1.971921216576654 -1.3151564979755386
lowerneck -8.612174542364308 -5.952939367547331 -1.4792684991856353
upperneck -1.135976464559576 -8.590479474340572 5.824286190733721
head 1.3199181192441412 -3.936602564908994 1.534165436728928
rclavicle -8.228828308656222E-16 8.645437782405508E-16
rhumerus 36.55968055395249 -4.0251703995149954 -29.12236749306299
rradius 150.5833228174675
rwrist -24.600981272621993
rhand -19.388204676369785 -31.080956541639743
rfingers 7.125019999999955
rthumb 6.952342323569363 -60.89561139119224
lclavicle -1.6549950349430754E-15 1.020270688751633E-15
lhumerus -47.382939219921234 -6.1830564113175885 79.80208681013147
lradius 62.0056403238255
lwrist 10.815775570633619
lhand -14.54948240106811 -19.899771590936126
lfingers 7.125019999999868
lthumb 11.535691926648079 9.825711878703576
rfemur -0.14640751259957474 8.915363858745323 35.689950957131195
rtibia 26.797131144509923
rfoot -21.59806890129254 -7.906078389828414
rtoes 5.527295080113371
lfemur -26.436315983290974 2.0336099792560023 -15.844478622025479
ltibia 50.34207237798704
lfoot -3.145535481545455 -4.668191086997369
ltoes 5.2508454683246555
280
root 0 0 0 -1.4813499573729563 -1.553890937896476 -3.9848671038382
lowerback 19.904625286264093 3.0217126979144897 0.13627013022388357
upperback 2.2741042171248673 4.081321190630572 -0.5253150816112391
thorax -8.696679461156823 1.9646040761071273 -1.303083950850627
lowerneck -8.599241430856527 -5.942689708207686 -1.4483825117915778
upperneck -1.2314729233222081 -8.568216915685493 5.770823153198592
head 1.2930106479388428 -3.9294509110394236 1.514269465530552
rclavicle -6.694324897447315E-16 1.0477663732746467E-15
rhumerus 36.39344939065145 -4.3839894632770955 -29.343327060833452
rradius 150.3183648425795
rwrist -24.123576473415255
rhand -19.531697754774733 -31.018843635346833
rfingers 7.125019999999957
rthumb 6.815640260052727 -60.840774813325616
lclavicle -1.5467805968452983E-15 1.1527540900367113E-15
lhumerus -47.384058350968786 -6.151687582857063 79.739715093945
lradius 61.98555409831015
lwrist 10.839614548795069
lhand -14.587627899114416 -19.826684867813828
lfingers 7.125019999999866
lthumb 11.497833313880557 9.9114835611013
rfemur -0.6574197091014051 8.78803226980158 35.508168497656996
rtibia 27.6248772251925
rfoot -21.173993717850156 -7.9594721893863
rtoes 5.086987563636702
lfemur -26.850221377186887 1.453163902704619 -16.773731991400886
ltibia 45.91308983153232
lfoot -3.123546775975756 -4.207475989307867
ltoes 8.736314630521008
281
root 0 0 0 -1.4792473326283608 -1.5647733159749313 -3.976372587729995
lowerback 20.00759268135286 3.007282996055273 0.10803497605168322
upperback 2.281911781202577 4.060654501352396 -0.5142507842006352
thorax -8.746222833494889 1.95461107957526 -1.2747499093475145
lowerneck -8.571007483682878 -5.93573792235569 -1.4115238075555805
upperneck -1.2515087419286388 -8.551516777214736 5.711652546591564
head 1.2912782236798064 -3.9241633297294456 1.490603334561806
rclavicle -4.820902875461051E-16 1.1583365039965735E-15
rhumerus 36.13645604623679 -4.92166208992187 -29.637921296509205
rradius 149.778767229604
rwrist -23.47163404559417
rhand -19.674047359714464 -30.940523021224724
rfingers 7.12501999999996
rthumb 6.680063920484486 -60.76921987438057
lclavicle -1.4026964797371223E-15 1.2214881932927348E-15
lhumerus -47.374718055616725 -6.125281751311711 79.68315819590767
lradius 61.96618450302438
lwrist 10.867182786324017
lhand -14.628493746603578 -19.750646698284903
lfingers 7.125019999999864
lthumb 11.456743913661027 10.002073055132644
rfemur -2.0574025975340415 8.596232103362237 35.20537209192503
rtibia 29.06849780600932
rfoot -20.29593429467055 -8.04935828555344
rtoes 4.719327637455985
lfemur -26.31819716229569 0.918916057182519 -17.519430558366643
ltibia 42.74701307965394
lfoot -2.673015107469972 -4.2399289604067905
ltoes 10.865030698048734
282
root 0 0 0 -1.46950844199666 -1.5473575784705735 -3.969267667967599
lowerback 20.094880701197862 2.9883297022362028 0.06465329802033282
upperback 2.2808799305032785 4.0332796286135455 -0.4939396920889596
thorax -8.794819613180053 1.9421969855217136 -1.2270667495401535
lowerneck -8.526159163293523 -5.935321257294128 -1.3745175330468855
upperneck -1.1571842218589374 -8.546180931611055 5.655374030647801
head 1.3261461143666278 -3.922797536827276 1.4661400228799653
rclavicle -2.7409050969168297E-16 1.1256869110672794E-15
rhumerus 35.79311253870338 -5.5942365161542025 -29.996871379234832
rradius 148.94419866209222
rwrist -22.683377887273323
rhand -19.78851910378699 -30.839145148196785
rfingers 7.125019999999963
rthumb 6.571017439993415 -60.67309386730685
lclavicle -1.2200999042705293E-15 1.1742366282731116E-15
lhumerus -47.36030734919516 -6.10184196038643 79.63449653779315
lradius 61.947905214269554
lwrist 10.893325554338483
lhand -14.667607380539867 -19.681448868720885
lfingers 7.1250199999998625
lthumb 11.416850484184437 10.086700448432234
rfemur -4.65264516178184 8.33731811906907 34.77909610661522
rtibia 31.30249066194031
rfoot -18.83916949207665 -8.198482291784638
rtoes 4.613160781328933
lfemur -24.873304197192887 0.5161577903803463 -18.182653393313316
ltibia 41.13998162477585
lfoot -1.7846827004843426 -4.873137137913518
ltoes 11.868101549090227
